<?xml version="1.0" encoding="UTF-8" standalone="no"?>
<!-- Created with Inkscape (http://www.inkscape.org/) -->

<svg
   width="40.420162mm"
   height="40.326904mm"
   viewBox="0 0 40.420162 40.326904"
   version="1.1"
   id="svg1"
   xmlns="http://www.w3.org/2000/svg"
   xmlns:svg="http://www.w3.org/2000/svg">
  <defs
     id="defs1" />
  <g
     id="layer1"
     transform="translate(-1.1496622,-1.0606137)">
    <path
       id="path3383-79-4"
       d="m 27.901076,15.587005 c 2.7e-5,-1.931802 0.01032,-2.710683 0.02328,-1.730799 0.0127,0.979858 0.0127,2.560453 -2.6e-5,3.512397 -0.0127,0.951944 -0.02302,0.150231 -0.02302,-1.781598 z"
       style="fill:#a0a0a0;stroke:none;stroke-width:0.264583px;stroke-linecap:butt;stroke-linejoin:miter;stroke-opacity:1" />
    <path
       id="path3437-6-3"
       d="m 27.352859,9.5250038 v 0.5503602 0.550359 h 0.564304 0.564832 V 10.075364 9.5250038 h -0.564832 z m 0,2.5967532 v 3.485568 3.485568 h 0.559144 0.559118 v -3.485568 -3.485568 h -0.559118 z"
       style="fill:#00b7ff;fill-opacity:0;stroke-width:0.264583" />
    <path
       id="path4243-04-9"
       d="m 27.345901,15.607351 v -3.485568 h 0.571526 0.5715 v 3.485568 3.485568 h -0.5715 -0.571526 z"
       style="fill:#00b7ff;fill-opacity:0;stroke-width:0.264583" />
    <path
       id="path4245-10-4"
       d="m 27.345901,15.607351 v -3.485568 h 0.571526 0.5715 v 3.485568 3.485568 h -0.5715 -0.571526 z"
       style="fill:#00b7ff;fill-opacity:0;stroke-width:0.264583" />
    <path
       id="path4247-4-9"
       d="m 27.345901,15.607351 v -3.485568 h 0.571526 0.5715 v 3.485568 3.485568 h -0.5715 -0.571526 z"
       style="fill:#00b7ff;fill-opacity:0;stroke-width:0.264583" />
    <path
       id="path4249-8-5"
       d="m 27.345901,15.607351 v -3.485568 h 0.571526 0.5715 v 3.485568 3.485568 h -0.5715 -0.571526 z"
       style="fill:#00b7ff;fill-opacity:0;stroke-width:0.264583" />
    <path
       id="path4251-7-5"
       d="m 27.338837,10.075602 v -0.55036 h 0.57859 0.578565 v 0.55036 0.55036 h -0.578565 -0.57859 z"
       style="fill:#00b7ff;fill-opacity:0;stroke-width:0.264583" />
    <g
       id="g1"
       transform="translate(7.2350791,-35.451888)"
       style="fill:#00b7ff;fill-opacity:1">
      <path
         id="path3715-9-3-5-81-6"
         d="M 34.334747,57.04626 A 17.74869,17.74869 0 0 1 16.669677,73.128994 17.74869,17.74869 0 0 1 3.5479952,67.301959 v 6.78615 a 20.536442,20.536442 0 0 0 20.5362168,0 20.536442,20.536442 0 0 0 10.250535,-17.041849 z"
         style="fill:#00b7ff;fill-opacity:1;stroke-width:0.130095" />
      <path
         id="path3715-9-3-5-4-9-8"
         d="m 4.182687,38.977428 a 17.74869,18.285382 0 0 1 22.760596,7.47646 17.74869,18.285382 0 0 1 1.514494,14.70893 l 5.87697,-3.495661 A 20.536442,21.157431 0 0 0 24.066637,39.344481 20.536442,21.157431 0 0 0 4.182687,38.977428 Z"
         style="fill:#00b7ff;fill-opacity:1;stroke-width:0.132047" />
      <path
         id="path3715-9-3-5-8-9-52"
         d="M 3.547991,74.08813 A 17.74869,17.74869 0 0 1 -1.547541,50.748364 17.74869,17.74869 0 0 1 10.059673,42.29816 L 4.182687,38.90508 A 20.536442,20.536442 0 0 0 -6.085417,56.68997 20.536442,20.536442 0 0 0 3.547991,74.08813 Z"
         style="fill:#00b7ff;fill-opacity:1;stroke-width:0.130095" />
    </g>
  </g>
</svg>
