<?xml version="1.0" encoding="UTF-8" standalone="no"?>
<!-- Created with Inkscape (http://www.inkscape.org/) -->

<svg
   width="210mm"
   height="210mm"
   viewBox="0 0 210 210"
   version="1.1"
   id="svg1"
   sodipodi:docname="blue-logo.svg"
   inkscape:version="1.3.2 (091e20e, 2023-11-25, custom)"
   xmlns:inkscape="http://www.inkscape.org/namespaces/inkscape"
   xmlns:sodipodi="http://sodipodi.sourceforge.net/DTD/sodipodi-0.dtd"
   xmlns="http://www.w3.org/2000/svg"
   xmlns:svg="http://www.w3.org/2000/svg">
  <sodipodi:namedview
     id="namedview1"
     pagecolor="#ffffff"
     bordercolor="#000000"
     borderopacity="0.25"
     inkscape:showpageshadow="2"
     inkscape:pageopacity="0.0"
     inkscape:pagecheckerboard="0"
     inkscape:deskcolor="#d1d1d1"
     inkscape:document-units="mm"
     showguides="true"
     inkscape:zoom="0.73139029"
     inkscape:cx="409.49409"
     inkscape:cy="472.388"
     inkscape:window-width="1920"
     inkscape:window-height="1017"
     inkscape:window-x="1912"
     inkscape:window-y="-8"
     inkscape:window-maximized="1"
     inkscape:current-layer="layer1">
    <sodipodi:guide
       position="-151.21315,26.769794"
       orientation="-0.70710678,-0.70710678"
       id="guide1"
       inkscape:locked="false" />
  </sodipodi:namedview>
  <defs
     id="defs1" />
  <g
     inkscape:label="Слой 1"
     inkscape:groupmode="layer"
     id="layer1">
    <g
       style="fill:#00b7ff"
       id="g4986-1-6-5-8"
       transform="matrix(5.5675588,0,0,5.5675588,-25.407074,-87.117405)">
      <path
         style="opacity:1;fill:#00b7ff;stroke-width:0.443034"
         d="m 158.36914,130.41602 a 55.644274,59.17981 0 0 1 -55.49414,56.0371 55.644274,59.17981 0 0 1 -37.605469,-15.6582 l -11.65625,20.1875 a 69.936089,69.936089 0 0 0 69.937499,0 69.936089,69.936089 0 0 0 34.9668,-60.5664 z"
         transform="scale(0.26458333)"
         id="path4980-9-8-3-9"
         inkscape:connector-curvature="0" />
      <path
         inkscape:connector-curvature="0"
         style="opacity:1;fill:#00b7ff;stroke-width:0.117219"
         d="m 14.204846,18.515008 a 14.722547,15.657991 60 0 1 20.181523,5.302458 14.722547,15.657991 60 0 1 1.387035,10.688212 l 6.167705,2.27e-4 a 18.503924,18.503924 0 0 0 -9.252148,-16.025191 18.503924,18.503924 0 0 0 -18.503752,2.82e-4 z"
         id="path4982-4-7-7-5" />
      <path
         inkscape:connector-curvature="0"
         style="opacity:1;fill:#00b7ff;stroke-width:0.117219"
         d="M 14.204818,50.496753 A 15.657991,14.722547 30 0 1 8.70612,30.367812 15.657991,14.722547 30 0 1 17.268866,23.822498 l -3.083657,-5.341502 a 18.503924,18.503924 0 0 0 -9.252148,16.02519 18.503924,18.503924 0 0 0 9.25212,16.024579 z"
         id="path4984-7-9-6-0" />
    </g>
  </g>
</svg>
