<?xml version="1.0" encoding="UTF-8" standalone="no"?>
<!-- Created with Inkscape (http://www.inkscape.org/) -->

<svg
   width="62.218296mm"
   height="20.163452mm"
   viewBox="0 0 62.218296 20.163452"
   version="1.1"
   id="svg1"
   xmlns:xlink="http://www.w3.org/1999/xlink"
   xmlns="http://www.w3.org/2000/svg"
   xmlns:svg="http://www.w3.org/2000/svg">
  <defs
     id="defs1">
    <color-profile
       name="Adobe-RGB-1998"
       xlink:href="../../../../Windows/system32/spool/drivers/color/AdobeRGB1998.icc"
       id="color-profile1" />
  </defs>
  <g
     id="layer1"
     style="opacity:1"
     transform="translate(-4.7075001,-9.8328998)">
    <g
       id="g12832-6-4"
       transform="matrix(0.26458333,0,0,0.26458333,-90.65874,12.794498)">
      <g
         id="g5435-3-8"
         transform="matrix(3.7795276,0,0,3.7795276,207.3239,-361.68637)"
         style="opacity:1;fill:#ffffff">
        <path
           style="opacity:1;fill:#ffffff;stroke-width:0.245849"
           d="m 229.5,389.29688 a 33.540831,33.540831 0 0 1 -33.38281,30.39257 33.540831,33.540831 0 0 1 -24.79688,-11.01172 v 12.82422 a 38.809024,38.809024 0 0 0 38.8086,0 A 38.809024,38.809024 0 0 0 229.5,389.29688 Z"
           transform="scale(0.26458333)"
           id="path3715-9-3-5-9-8" />
        <path
           style="opacity:1;fill:#ffffff;stroke-width:0.0650475"
           d="m 45.645844,93.930875 a 8.8743449,8.8743449 0 0 1 11.380298,3.62851 8.8743449,8.8743449 0 0 1 0.757247,7.138605 l 2.938485,-1.69653 a 10.268221,10.268221 0 0 0 -5.134055,-8.892445 10.268221,10.268221 0 0 0 -9.941975,-0.17814 z"
           id="path3715-9-3-5-4-95-3" />
        <path
           style="opacity:1;fill:#ffffff;stroke-width:0.0650475"
           d="M 45.328496,111.5224 A 8.8743449,8.8743449 0 0 1 42.78073,99.852517 8.8743449,8.8743449 0 0 1 48.584337,95.627415 l -2.938493,-1.69654 a 10.268221,10.268221 0 0 0 -5.134052,8.892445 10.268221,10.268221 0 0 0 4.816704,8.69908 z"
           id="path3715-9-3-5-8-2-8" />
      </g>
      <g
         transform="translate(82.16948,-878.28469)"
         id="g4327-3-2-54-1-1-7">
        <path
           style="opacity:1;fill:none;stroke:#ffffff;stroke-width:0.712564px;stroke-linecap:butt;stroke-linejoin:miter;stroke-opacity:1"
           d="m 364.65442,917.75358 h 148.7712"
           id="path4193-1-7-6-0-7-7-3-5" />
        <text
           xml:space="preserve"
           style="font-style:normal;font-weight:normal;line-height:0%;font-family:Arial;-inkscape-font-specification:Arial;text-align:start;letter-spacing:0px;word-spacing:0px;writing-mode:lr-tb;text-anchor:start;opacity:1;fill:#ffffff;fill-opacity:1;stroke:none"
           x="372.21872"
           y="914.09821"
           id="text4066-9-8-7-2-6-2-0-2"><tspan
             id="tspan3391-05-8-5-3-5-7-9-4"
             x="372.21872"
             y="914.09821"
             style="font-size:50px;line-height:1.25;letter-spacing:0px;opacity:1">tr<tspan
   style="font-size:50px;line-height:125%;letter-spacing:0px;opacity:1;fill:#00b7ff;fill-opacity:1"
   id="tspan3393-6-6-3-7-6-2-9-5">i</tspan>tium</tspan></text>
        <text
           xml:space="preserve"
           style="font-style:normal;font-weight:normal;line-height:0%;font-family:Arial;-inkscape-font-specification:Arial;text-align:start;letter-spacing:0px;word-spacing:0px;writing-mode:lr-tb;text-anchor:start;white-space:pre;inline-size:130.721;opacity:1;fill:#ffffff;fill-opacity:1;stroke:none"
           x="373.56125"
           y="932.37659"
           id="text4066-1-7-0-5-5-9-2-1-0"
           transform="matrix(1.3234647,0,0,1.414239,-119.8721,-384.08107)"><tspan
             x="373.56125"
             y="932.37659"
             id="tspan4"><tspan
               style="font-size:15px;line-height:76%;letter-spacing:1px;opacity:1"
               id="tspan3">cybersecurity</tspan></tspan></text>
        <path
           style="opacity:1;fill:#a0a0a0;stroke:none;stroke-width:1px;stroke-linecap:butt;stroke-linejoin:miter;stroke-opacity:1"
           d="m 410.4335,900.81583 c 7e-5,-7.30137 0.0394,-10.24512 0.0875,-6.54167 0.048,3.70344 0.048,9.67729 -1.3e-4,13.27521 -0.0481,3.59792 -0.0874,0.56782 -0.0873,-6.73354 z"
           id="path3383-2-2-7-1-5-7" />
        <path
           style="opacity:1;fill:#00b7ff;fill-opacity:0"
           d="m 406.18359,877.9043 v 2.08008 2.08007 h 2.13282 2.13476 v -2.08007 -2.08008 h -2.13476 z m 0,9.81445 v 13.17383 13.17383 h 2.11329 2.11328 v -13.17383 -13.17383 h -2.11328 z"
           id="path3437-9-2-4-0-8-3" />
        <path
           style="opacity:1;fill:#00b7ff;fill-opacity:0"
           d="m 406.14072,900.89268 v -13.17379 h 2.16008 2.16007 v 13.17379 13.17379 h -2.16007 -2.16008 z"
           id="path4243-1-8-5-6-5-2" />
        <path
           style="opacity:1;fill:#00b7ff;fill-opacity:0"
           d="m 406.14072,900.89268 v -13.17379 h 2.16008 2.16007 v 13.17379 13.17379 h -2.16007 -2.16008 z"
           id="path4245-2-9-2-1-7-7" />
        <path
           style="opacity:1;fill:#00b7ff;fill-opacity:0"
           d="m 406.14072,900.89268 v -13.17379 h 2.16008 2.16007 v 13.17379 13.17379 h -2.16007 -2.16008 z"
           id="path4247-7-7-5-5-3-2" />
        <path
           style="opacity:1;fill:#00b7ff;fill-opacity:0"
           d="m 406.14072,900.89268 v -13.17379 h 2.16008 2.16007 v 13.17379 13.17379 h -2.16007 -2.16008 z"
           id="path4249-0-3-4-9-3-1" />
        <path
           style="opacity:1;fill:#00b7ff;fill-opacity:0"
           d="m 406.14072,879.98529 v -2.08007 h 2.18675 2.18674 v 2.08007 2.08007 h -2.18674 -2.18675 z"
           id="path4251-9-6-7-4-89-3" />
      </g>
    </g>
  </g>
</svg>
